<?xml version="1.0" encoding="UTF-8"?>
<svg id="Camada_2" data-name="Camada 2" xmlns="http://www.w3.org/2000/svg" viewBox="0 0 598.41 598.41">
  <g id="Camada_1-2" data-name="Camada 1">
    <g>
      <circle cx="299.2" cy="299.2" r="43.99"/>
      <path d="m511.05,0H87.36C39.19,0,0,39.19,0,87.36v423.68c0,48.17,39.19,87.36,87.36,87.36h423.69c48.17,0,87.36-39.19,87.36-87.36V87.36c0-48.17-39.19-87.36-87.36-87.36Zm54.39,437.64v54.92c-28.26-20.52-50.68-47.42-65.63-78.78,23.09,4.16,45.11,12.16,65.63,23.87Zm-227.42,127.8h-76.3c7.3-27.61,20.35-53.65,38.15-76.1,17.8,22.45,30.85,48.48,38.15,76.1ZM32.97,171.69v-34.01c18.17,13.24,34.22,29.41,47.25,47.6-16.22-2.63-32.04-7.18-47.25-13.6ZM87.36,32.97h159.18c5.93,26.73,16.22,52,30.62,75.25-37.3,47.55-92.51,76.28-152.65,79.42-21.53-38.8-53.06-70.89-91.55-93.18v-7.1c0-29.99,24.4-54.39,54.39-54.39Zm211.84,40.53c-6.55-12.95-11.71-26.52-15.41-40.53h30.82c-3.7,14.01-8.86,27.58-15.41,40.53Zm149.35,301.15c-55.13,3.2-107.45,25.01-148.69,62.01-42.88-38.5-97.29-60.43-154.62-62.36,6.53-22.28,9.84-45.27,9.84-68.49,0-28.51-4.92-56.42-14.63-83.11,61.35-6.82,118.4-37.1,158.73-84.28,42.12,49.31,101.79,79.84,166.06,85-14.57,31.84-21.95,65.77-21.95,101.02,0,16.8,1.76,33.65,5.25,50.21Zm36.58-186.65h-.24c-64.47,0-123.86-29.02-163.65-79.78,14.4-23.25,24.68-48.52,30.62-75.25h159.18c29.99,0,54.39,24.4,54.39,54.39v25.75c-31.97,18.54-59.62,44.32-80.3,74.89ZM32.97,397.49v-186.99c22.24,7.8,45.39,12.3,68.99,13.41,11.2,25.99,16.87,53.52,16.87,81.9,0,24.06-4.12,47.68-12.26,70.26-25.59,3.19-50.28,10.38-73.6,21.42Zm53.79,19.12c-14.1,22.27-32.4,41.79-53.79,57.35v-35.47c16.97-9.87,35-17.2,53.79-21.88Zm44.66-6.1c1.84-.06,3.69-.09,5.54-.09,50.96,0,99.64,18.55,137.77,52.38-24.67,29.77-41.96,65.04-50.32,102.64H87.36c-28.05,0-51.06-21-54-48.48,42.39-24.71,76.99-62.27,98.06-106.45Zm327.58-.05c19.22,50.91,55.1,94.11,101.76,122.55-8.64,19.6-28.01,32.43-49.72,32.43h-135.72c-8.36-37.6-25.65-72.87-50.32-102.64,37.15-32.96,84.32-51.42,134-52.34Zm106.43-199.94v186.39c-25.17-11.73-51.85-18.98-79.5-21.59-4.22-16.68-6.36-33.77-6.36-50.88,0-35.39,9.11-70.29,26.37-101.15,20.32-1.75,40.28-6.03,59.49-12.76Zm-28.61-29.15c8.73-9.18,18.3-17.56,28.61-25.05v15.31c-9.34,3.96-18.9,7.21-28.61,9.74Z"/>
    </g>
  </g>
</svg>